<svg width="35" height="35" viewBox="0 0 35 35" fill="none" xmlns="http://www.w3.org/2000/svg">
<path d="M34.8649 6.0432L31.9483 2.54328C31.8374 2.41014 31.673 2.33321 31.4997 2.33328H19.8333V0.583321C19.8333 0.261182 19.5721 0 19.25 0H15.75C15.4279 0 15.1667 0.261182 15.1667 0.583321V2.33328H12.2501C11.928 2.33328 11.6668 2.59447 11.6668 2.9166V9.91646C11.6668 10.2386 11.928 10.4998 12.2501 10.4998H15.1667V11.6664H3.50031C3.32699 11.6663 3.16264 11.7433 3.05173 11.8764L0.13513 15.3763C-0.0450433 15.5926 -0.0450433 15.9067 0.13513 16.123L3.05173 19.6229C3.16264 19.7561 3.32699 19.833 3.50031 19.8329H15.1667V34.4159C15.1667 34.7381 15.4279 34.9992 15.75 34.9992H19.25C19.5721 34.9992 19.8333 34.7381 19.8333 34.4159V19.8329H22.7499C23.072 19.8329 23.3332 19.5717 23.3332 19.2496V12.2497C23.3332 11.9276 23.072 11.6664 22.7499 11.6664H19.8333V10.4998H31.4997C31.673 10.4998 31.8374 10.4229 31.9483 10.2898L34.8649 6.78986C35.045 6.57359 35.045 6.25947 34.8649 6.0432ZM16.3334 1.16664H18.6666V2.33328H16.3334V1.16664ZM18.6666 33.8326H16.3334V19.8329H18.6666V33.8326ZM22.1666 12.8331V18.6663H3.77388L1.34202 15.7497L3.77388 12.8331H22.1666ZM16.3334 11.6664V10.4998H18.6666V11.6664H16.3334ZM31.2273 9.33313H12.8334V3.49993H31.2261L33.658 6.41653L31.2273 9.33313Z" fill="white"/>
</svg>
