<svg width="56" height="12" viewBox="0 0 56 12" fill="none" xmlns="http://www.w3.org/2000/svg">
<path d="M12 6C12 9.31371 9.31371 12 6 12C2.68629 12 0 9.31371 0 6C0 2.68629 2.68629 0 6 0C9.31371 0 12 2.68629 12 6Z" fill="#011126" fill-opacity="0.2"/>
<path d="M34 6C34 9.31371 31.3137 12 28 12C24.6863 12 22 9.31371 22 6C22 2.68629 24.6863 0 28 0C31.3137 0 34 2.68629 34 6Z" fill="#011126" fill-opacity="0.2"/>
<path d="M56 6C56 9.31371 53.3137 12 50 12C46.6863 12 44 9.31371 44 6C44 2.68629 46.6863 0 50 0C53.3137 0 56 2.68629 56 6Z" fill="#011126" fill-opacity="0.2"/>
</svg>
