<svg width="137" height="185" viewBox="0 0 137 185" fill="none" xmlns="http://www.w3.org/2000/svg">
<path d="M30.8395 185C47.8595 185 61.6711 171.189 61.6711 154.169V123.337H30.8395C13.8195 123.337 0.0078125 137.149 0.0078125 154.169C0.0078125 171.189 13.8195 185 30.8395 185Z" fill="#0ACF83"/>
<path d="M0 92.4999C0 75.4799 13.8116 61.6682 30.8316 61.6682H61.6684V123.337H30.8367C13.8167 123.331 0 109.52 0 92.4999Z" fill="#A259FF"/>
<path d="M0 30.8316C0 13.8116 13.8116 0 30.8316 0H61.6684V61.6684H30.8367C13.8167 61.6684 0 47.8516 0 30.8316Z" fill="#F24E1E"/>
<path d="M61.668 0H92.4996C109.52 0 123.331 13.8116 123.331 30.8316C123.331 47.8516 109.52 61.6633 92.4996 61.6633H61.668V0Z" fill="#FF7262"/>
<path d="M114.302 114.303C126.342 102.263 126.342 82.7413 114.302 70.7009C102.261 58.6605 82.7399 58.6605 70.6995 70.7009C58.6591 82.7413 58.6591 102.263 70.6995 114.303C82.7399 126.343 102.261 126.343 114.302 114.303Z" fill="#1ABCFE"/>
</svg>
