<svg width="152" height="50" viewBox="0 0 152 50" fill="none" xmlns="http://www.w3.org/2000/svg">
<path d="M0 32.2546V47.2222C0 48.7546 1.24537 50 2.77778 50H10.0139C11.5463 50 12.7917 48.7546 12.7917 47.2222V32.2546C12.7917 30.7222 11.5463 29.4769 10.0139 29.4769H2.77778C1.24537 29.4769 0 30.7176 0 32.2546ZM45.0741 1.01852L27.1481 22.9028C26.037 24.2593 23.963 24.2593 22.8519 22.9028L17.7176 16.6389C16.0648 14.6204 12.7917 15.7917 12.7917 18.3981V28.4491C12.7917 29.1111 13.0278 29.75 13.4583 30.2546L22.0741 40.3287C22.6019 40.9444 23.375 41.3009 24.1852 41.3009H25.7176C26.5278 41.3009 27.3009 40.9444 27.8287 40.3287L32.2963 35.1019C33.9722 33.1389 37.1852 34.3241 37.1852 36.9074V44.2917C37.1852 45.8241 38.4306 47.0694 39.963 47.0694H47.2222C48.7546 47.0694 50 45.8241 50 44.2917V2.77778C50 1.24537 48.7546 0 47.2222 0C46.3889 0 45.6018 0.375 45.0741 1.01852Z" fill="white"/>
<path d="M72.806 18.251L67.543 25.262L62.28 18.251H61.577V31H63.591V23.115L67.201 27.846H67.885L71.476 23.134V31H73.49V18.251H72.806Z" fill="white"/>
<path d="M76.6434 31H85.1174V29.195H78.6574V25.224H83.3504V23.476H78.6574V20.265H84.8894V18.46H76.6434V31Z" fill="white"/>
<path d="M86.5678 28.492C87.5368 30.183 89.2468 31.209 91.2988 31.209C93.7118 31.209 95.4978 29.765 95.4978 27.58C95.4978 25.927 94.5288 24.939 92.4958 24.008L91.0898 23.362C89.8548 22.735 89.4178 22.564 89.3418 21.576C89.3418 20.588 90.1778 20.056 91.2418 20.056C92.3058 20.056 93.2178 20.588 93.8828 21.576L95.2888 20.493C94.5098 19.144 93.0088 18.251 91.2418 18.251C89.0758 18.251 87.2898 19.6 87.2898 21.652C87.2898 23.324 88.3918 24.293 90.2158 25.129L91.6028 25.775C92.9138 26.383 93.4458 26.763 93.4458 27.656C93.4458 28.72 92.5718 29.404 91.2798 29.404C89.8358 29.404 88.8288 28.625 87.9928 27.409L86.5678 28.492Z" fill="white"/>
<path d="M98.0741 31H100.088V25.262H106.396V31H108.41V18.46H106.396V23.457H100.088V18.46H98.0741V31Z" fill="white"/>
<path d="M110.822 24.73C110.746 28.321 113.843 31.266 117.415 31.209C119.752 31.209 121.728 30.088 122.792 28.321L121.272 27.2C120.379 28.587 119.087 29.366 117.434 29.366C114.869 29.366 112.912 27.39 112.912 24.73C112.912 22.07 114.869 20.094 117.434 20.094C119.087 20.094 120.379 20.873 121.272 22.26L122.792 21.139C121.709 19.372 119.714 18.251 117.415 18.251C113.843 18.194 110.746 21.139 110.822 24.73Z" fill="white"/>
<path d="M124.348 24.73C124.272 28.321 127.331 31.266 130.922 31.209C134.475 31.266 137.591 28.321 137.515 24.73C137.591 21.139 134.475 18.194 130.922 18.251C127.35 18.194 124.291 21.139 124.348 24.73ZM135.444 24.711C135.444 27.39 133.506 29.366 130.941 29.366C128.338 29.366 126.438 27.39 126.438 24.711C126.438 22.07 128.338 20.094 130.941 20.094C133.506 20.094 135.444 22.089 135.444 24.711Z" fill="white"/>
<path d="M151.162 18.251L145.899 25.262L140.636 18.251H139.933V31H141.947V23.115L145.557 27.846H146.241L149.832 23.134V31H151.846V18.251H151.162Z" fill="white"/>
</svg>
