<svg width="35" height="23" viewBox="0 0 35 23" fill="none" xmlns="http://www.w3.org/2000/svg">
<path d="M1.79497 0H33.2051C34.1923 0 35 0.796126 35 1.7692V21.2307C35 22.2037 34.1923 23 33.2051 23H1.79491C0.8078 23 0 22.2039 0 21.2307V1.7692C6.48499e-05 0.796126 0.807728 0 1.79497 0ZM2.46852 1.32683L16.4675 11.6769C16.7192 11.8658 17.1056 11.9839 17.5001 11.9821C17.8945 11.9839 18.2808 11.8658 18.5326 11.6769L32.5316 1.32683H2.46852ZM9.94633 12.3599L2.31813 21.6484C2.31047 21.6577 2.30111 21.6647 2.29297 21.6732H32.7071C32.699 21.6643 32.6896 21.6577 32.6819 21.6484L25.0537 12.3599C24.82 12.075 24.8643 11.6575 25.1538 11.4266C25.4428 11.1962 25.8664 11.2398 26.1002 11.5247L33.6539 20.7225V2.15618L19.3399 12.7384C18.8018 13.1334 18.1472 13.3072 17.5002 13.309C16.854 13.3076 16.1989 13.1338 15.6605 12.7384L1.34647 2.15618V20.7224L8.89996 11.5247C9.13375 11.2399 9.55778 11.1961 9.84632 11.4266C10.1358 11.6569 10.1802 12.075 9.94633 12.3599Z" fill="white"/>
</svg>
