<svg width="152" height="50" fill="none" xmlns="http://www.w3.org/2000/svg"><path d="M0 32.255v14.967A2.78 2.78 0 0 0 2.778 50h7.236a2.78 2.78 0 0 0 2.778-2.778V32.255a2.78 2.78 0 0 0-2.778-2.778H2.778A2.777 2.777 0 0 0 0 32.255zM45.074 1.019 27.148 22.903a2.776 2.776 0 0 1-4.296 0l-5.134-6.264c-1.653-2.019-4.926-.847-4.926 1.76v10.05c0 .662.236 1.301.666 1.806l8.616 10.074c.528.615 1.301.972 2.111.972h1.533c.81 0 1.583-.357 2.11-.972l4.468-5.227c1.676-1.963 4.89-.778 4.89 1.805v7.385a2.78 2.78 0 0 0 2.777 2.777h7.26A2.78 2.78 0 0 0 50 44.292V2.778a2.778 2.778 0 0 0-4.926-1.76zM72.806 18.251l-5.263 7.011-5.263-7.011h-.703V31h2.014v-7.885l3.61 4.731h.684l3.591-4.712V31h2.014V18.251h-.684zM76.643 31h8.474v-1.805h-6.46v-3.971h4.693v-1.748h-4.693v-3.211h6.232V18.46h-8.246V31zM86.568 28.492c.969 1.691 2.679 2.717 4.73 2.717 2.414 0 4.2-1.444 4.2-3.629 0-1.653-.97-2.641-3.002-3.572l-1.406-.646c-1.235-.627-1.672-.798-1.748-1.786 0-.988.836-1.52 1.9-1.52s1.976.532 2.64 1.52l1.407-1.083c-.78-1.349-2.28-2.242-4.047-2.242-2.166 0-3.952 1.349-3.952 3.401 0 1.672 1.102 2.641 2.926 3.477l1.387.646c1.31.608 1.843.988 1.843 1.881 0 1.064-.874 1.748-2.166 1.748-1.444 0-2.451-.779-3.287-1.995l-1.425 1.083zM98.074 31h2.014v-5.738h6.308V31h2.014V18.46h-2.014v4.997h-6.308V18.46h-2.014V31zM110.822 24.73c-.076 3.591 3.021 6.536 6.593 6.479 2.337 0 4.313-1.121 5.377-2.888l-1.52-1.121c-.893 1.387-2.185 2.166-3.838 2.166-2.565 0-4.522-1.976-4.522-4.636s1.957-4.636 4.522-4.636c1.653 0 2.945.779 3.838 2.166l1.52-1.121c-1.083-1.767-3.078-2.888-5.377-2.888-3.572-.057-6.669 2.888-6.593 6.479zM124.348 24.73c-.076 3.591 2.983 6.536 6.574 6.479 3.553.057 6.669-2.888 6.593-6.479.076-3.591-3.04-6.536-6.593-6.479-3.572-.057-6.631 2.888-6.574 6.479zm11.096-.019c0 2.679-1.938 4.655-4.503 4.655-2.603 0-4.503-1.976-4.503-4.655 0-2.641 1.9-4.617 4.503-4.617 2.565 0 4.503 1.995 4.503 4.617zM151.162 18.251l-5.263 7.011-5.263-7.011h-.703V31h2.014v-7.885l3.61 4.731h.684l3.591-4.712V31h2.014V18.251h-.684z" fill="#000"/></svg>