<svg width="200" height="185" fill="none" xmlns="http://www.w3.org/2000/svg"><path d="M139.501 69.375h51.661c4.881 0 8.837 3.934 8.837 8.787v46.791c0 17.837-14.541 32.297-32.479 32.297h-.154c-17.937.002-32.481-14.455-32.483-32.292v-50.99c0-2.537 2.068-4.593 4.618-4.593zM174.418 60.126c11.56 0 20.931-9.319 20.931-20.813 0-11.494-9.371-20.813-20.931-20.813-11.559 0-20.93 9.319-20.93 20.813 0 11.494 9.371 20.813 20.93 20.813z" fill="#5059C9"/><path d="M109.299 60.125c16.697 0 30.232-13.46 30.232-30.062C139.531 13.46 125.996 0 109.299 0S79.066 13.46 79.066 30.063c0 16.603 13.536 30.062 30.233 30.062zM149.615 69.375H64.341c-4.823.118-8.638 4.098-8.526 8.894v53.368c-.673 28.778 22.223 52.659 51.163 53.363 28.94-.704 51.836-24.585 51.163-53.363V78.269c.111-4.796-3.703-8.776-8.526-8.894z" fill="#7B83EB"/><path opacity=".1" d="M111.629 69.375v74.786a8.513 8.513 0 0 1-5.302 7.816 8.285 8.285 0 0 1-3.21.648H59.908c-.605-1.526-1.163-3.053-1.628-4.625a56.038 56.038 0 0 1-2.465-16.373V78.255c-.112-4.788 3.697-8.762 8.511-8.88h47.303z" fill="#000"/><path opacity=".2" d="M106.978 69.375v79.411a8.159 8.159 0 0 1-.651 3.191 8.564 8.564 0 0 1-7.86 5.273H62.093c-.79-1.526-1.535-3.053-2.186-4.625A45.79 45.79 0 0 1 58.28 148a56.038 56.038 0 0 1-2.465-16.373V78.255c-.112-4.788 3.697-8.762 8.511-8.88h42.652z" fill="#000"/><path opacity=".2" d="M106.978 69.375v70.161c-.036 4.66-3.826 8.429-8.512 8.464H58.28a56.038 56.038 0 0 1-2.465-16.373V78.255c-.112-4.788 3.697-8.762 8.511-8.88h42.652z" fill="#000"/><path opacity=".2" d="M102.326 69.375v70.161c-.035 4.66-3.825 8.429-8.511 8.464H58.28a56.038 56.038 0 0 1-2.465-16.373V78.255c-.112-4.788 3.697-8.762 8.511-8.88h38z" fill="#000"/><path opacity=".1" d="M111.631 45.464v14.57c-.791.045-1.535.092-2.326.092-.79 0-1.534-.046-2.325-.093a25.655 25.655 0 0 1-4.651-.74c-9.419-2.218-17.2-8.786-20.93-17.667A25.59 25.59 0 0 1 79.91 37h23.209c4.694.017 8.494 3.796 8.512 8.463z" fill="#000"/><path opacity=".2" d="M106.976 50.088v9.944a25.663 25.663 0 0 1-4.651-.74c-9.419-2.218-17.2-8.786-20.93-17.667h17.07c4.693.017 8.493 3.796 8.511 8.463z" fill="#000"/><path opacity=".2" d="M106.976 50.088v9.944a25.663 25.663 0 0 1-4.651-.74c-9.419-2.218-17.2-8.786-20.93-17.667h17.07c4.693.017 8.493 3.796 8.511 8.463z" fill="#000"/><path opacity=".2" d="M102.325 50.089v9.203c-9.419-2.218-17.2-8.786-20.93-17.667h12.418c4.694.017 8.494 3.797 8.512 8.464z" fill="#000"/><path d="M8.526 41.625H93.8c4.708 0 8.525 3.795 8.525 8.477v84.795c0 4.682-3.817 8.478-8.525 8.478H8.526c-4.709 0-8.526-3.796-8.526-8.478V50.102c0-4.682 3.817-8.477 8.526-8.477z" fill="url(#a)"/><path d="M73.6 73.898H56.555v46.158h-10.86V73.898H28.727v-8.954H73.6v8.954z" fill="#fff"/><defs><linearGradient id="a" x1="17.776" y1="35" x2="83.986" y2="150.322" gradientUnits="userSpaceOnUse"><stop stop-color="#5A62C3"/><stop offset=".5" stop-color="#4D55BD"/><stop offset="1" stop-color="#3940AB"/></linearGradient></defs></svg>