<svg width="200" height="185" viewBox="0 0 200 185" fill="none" xmlns="http://www.w3.org/2000/svg">
<path d="M139.501 69.3748H191.162C196.043 69.3748 199.999 73.309 199.999 78.1622V124.953C199.999 142.79 185.458 157.25 167.52 157.25H167.366C149.429 157.252 134.885 142.795 134.883 124.958V73.9674C134.883 71.4309 136.951 69.3748 139.501 69.3748Z" fill="#5059C9"/>
<path d="M174.418 60.1256C185.978 60.1256 195.349 50.8075 195.349 39.313C195.349 27.8186 185.978 18.5005 174.418 18.5005C162.859 18.5005 153.488 27.8186 153.488 39.313C153.488 50.8075 162.859 60.1256 174.418 60.1256Z" fill="#5059C9"/>
<path d="M109.299 60.1252C125.996 60.1252 139.531 46.6657 139.531 30.0626C139.531 13.4595 125.996 0 109.299 0C92.602 0 79.0664 13.4595 79.0664 30.0626C79.0664 46.6657 92.602 60.1252 109.299 60.1252Z" fill="#7B83EB"/>
<path d="M149.615 69.3748H64.3408C59.5183 69.4934 55.7034 73.4731 55.8153 78.2687V131.637C55.1418 160.415 78.0382 184.296 106.978 185C135.918 184.296 158.814 160.415 158.141 131.637V78.2687C158.252 73.4731 154.438 69.4934 149.615 69.3748Z" fill="#7B83EB"/>
<path opacity="0.1" d="M111.629 69.3748V144.161C111.606 147.591 109.516 150.672 106.327 151.977C105.311 152.404 104.22 152.625 103.117 152.625H59.908C59.3034 151.099 58.7452 149.572 58.28 148C56.6519 142.693 55.8212 137.176 55.8149 131.627V78.2548C55.7031 73.4669 59.5117 69.4934 64.3265 69.3748H111.629Z" fill="black"/>
<path opacity="0.2" d="M106.978 69.3748V148.786C106.978 149.882 106.756 150.968 106.327 151.977C105.013 155.149 101.915 157.227 98.4661 157.25H62.094C61.3033 155.724 60.5592 154.197 59.908 152.625C59.2568 151.052 58.7452 149.572 58.28 148C56.6519 142.693 55.8212 137.176 55.8149 131.627V78.2548C55.7031 73.4669 59.5117 69.4934 64.3265 69.3748H106.978Z" fill="black"/>
<path opacity="0.2" d="M106.978 69.3748V139.536C106.942 144.196 103.152 147.965 98.466 148H58.28C56.6519 142.693 55.8212 137.176 55.8149 131.627V78.2548C55.7031 73.4669 59.5117 69.4934 64.3265 69.3748H106.978Z" fill="black"/>
<path opacity="0.2" d="M102.326 69.3748V139.536C102.291 144.196 98.5009 147.965 93.8148 148H58.28C56.6519 142.693 55.8212 137.176 55.8149 131.627V78.2548C55.7031 73.4669 59.5117 69.4934 64.3265 69.3748H102.326Z" fill="black"/>
<path opacity="0.1" d="M111.631 45.4644V60.0332C110.84 60.0794 110.096 60.1257 109.305 60.1257C108.515 60.1257 107.771 60.0795 106.98 60.0332C105.41 59.9296 103.853 59.6819 102.329 59.2932C92.9101 57.0753 85.1288 50.507 81.3986 41.6257C80.7567 40.1342 80.2584 38.5856 79.9102 37.0007H103.119C107.813 37.0184 111.613 40.7973 111.631 45.4644Z" fill="black"/>
<path opacity="0.2" d="M106.976 50.0884V60.0322C105.406 59.9286 103.849 59.6809 102.325 59.2923C92.9061 57.0743 85.1248 50.506 81.3945 41.6248H98.4642C103.158 41.6424 106.958 45.4214 106.976 50.0884Z" fill="black"/>
<path opacity="0.2" d="M106.976 50.0884V60.0322C105.406 59.9286 103.849 59.6809 102.325 59.2923C92.9061 57.0743 85.1248 50.506 81.3945 41.6248H98.4642C103.158 41.6424 106.958 45.4214 106.976 50.0884Z" fill="black"/>
<path opacity="0.2" d="M102.325 50.0885V59.2922C92.9061 57.0743 85.1248 50.506 81.3945 41.6248H93.8131C98.5066 41.6425 102.307 45.4215 102.325 50.0885Z" fill="black"/>
<path d="M8.52552 41.6248H93.7998C98.5083 41.6248 102.325 45.4204 102.325 50.1024V134.897C102.325 139.579 98.5082 143.375 93.7998 143.375H8.52552C3.81697 143.375 0 139.579 0 134.897V50.1024C0 45.4204 3.81706 41.6248 8.52552 41.6248Z" fill="url(#paint0_linear)"/>
<path d="M73.6009 73.8981H56.5544V120.056H45.694V73.8981H28.7266V64.9441H73.6009V73.8981Z" fill="white"/>
<defs>
<linearGradient id="paint0_linear" x1="17.776" y1="35.0004" x2="83.9863" y2="150.322" gradientUnits="userSpaceOnUse">
<stop stop-color="#5A62C3"/>
<stop offset="0.5" stop-color="#4D55BD"/>
<stop offset="1" stop-color="#3940AB"/>
</linearGradient>
</defs>
</svg>
